<?xml version="1.0" encoding="utf-8"?>
<!-- Generator: Adobe Illustrator 19.1.0, SVG Export Plug-In . SVG Version: 6.00 Build 0)  -->
<svg version="1.1" id="Layer_1" xmlns="http://www.w3.org/2000/svg" xmlns:xlink="http://www.w3.org/1999/xlink" x="0px" y="0px"
	 viewBox="0 0 720 720" style="enable-background:new 0 0 720 720;" xml:space="preserve">
<g>
	<g>
		<polygon points="119.2,646.1 246.7,646.1 198.9,693.8 182.9,709.8 		"/>
	</g>
	<g>
		<polygon points="338.1,554.6 269.5,623.2 96.4,623.2 27.8,554.6 		"/>
	</g>
	<g>
		<polygon points="473.2,646.1 600.7,646.1 536.9,709.8 521,693.8 		"/>
	</g>
	<g>
		<polygon points="692.1,554.6 623.5,623.2 450.4,623.2 381.8,554.6 		"/>
	</g>
	<g>
		<polygon points="543.7,371.9 612.3,440.5 107.6,440.5 176.2,371.9 		"/>
	</g>
	<g>
		<polygon points="107.8,280.6 612.1,280.6 543.5,349.3 176.4,349.3 		"/>
	</g>
	<g>
		<polygon points="247,75.2 118.9,75.2 167,27.1 182.9,11.2 		"/>
	</g>
	<g>
		<polygon points="338.3,166.5 27.6,166.5 96.2,97.9 269.7,97.9 		"/>
	</g>
	<g>
		<polygon points="601,75.2 472.9,75.2 536.9,11.2 552.9,27.1 		"/>
	</g>
	<g>
		<polygon points="692.3,166.5 381.6,166.5 450.2,97.9 623.7,97.9 		"/>
	</g>
	<g>
		<polygon points="703.5,189.2 693.3,199.4 634.8,258 85.1,258 26.6,199.4 16.4,189.2 		"/>
	</g>
	<g>
		<polygon points="693.3,521.5 703.7,532 16.2,532 84.8,463.4 635.1,463.4 		"/>
	</g>
</g>
</svg>
